<mxfile host="app.diagrams.net" modified="2023-10-13T14:26:48.626Z" agent="Mozilla/5.0 (Windows NT 10.0; Win64; x64; rv:109.0) Gecko/20100101 Firefox/118.0" version="22.0.4" etag="IeKwKgECVx3vDZfYWU6Q" type="github">
  <diagram name="PÃ¡gina-1" id="MgPHbfp6EiS18CAXmIQC">
    <mxGraphModel>
      <root>
        <mxCell id="0" />
        <mxCell id="1" parent="0" />
      </root>
    </mxGraphModel>
  </diagram>
</mxfile>
